<svg width="32" height="32" viewBox="0 0 32 32" fill="none" xmlns="http://www.w3.org/2000/svg">
<path d="M15 18.125H11.625C11.5587 18.125 11.4951 18.1513 11.4482 18.1982C11.4013 18.2451 11.375 18.3087 11.375 18.375V19.875C11.375 19.9413 11.4013 20.0049 11.4482 20.0518C11.4951 20.0987 11.5587 20.125 11.625 20.125H15V23.5C15 23.5663 15.0263 23.6299 15.0732 23.6768C15.1201 23.7237 15.1837 23.75 15.25 23.75H16.75C16.8163 23.75 16.8799 23.7237 16.9268 23.6768C16.9737 23.6299 17 23.5663 17 23.5V20.125H20.375C20.4413 20.125 20.5049 20.0987 20.5518 20.0518C20.5987 20.0049 20.625 19.9413 20.625 19.875V18.375C20.625 18.3087 20.5987 18.2451 20.5518 18.1982C20.5049 18.1513 20.4413 18.125 20.375 18.125H17V14.75C17 14.6837 16.9737 14.6201 16.9268 14.5732C16.8799 14.5263 16.8163 14.5 16.75 14.5H15.25C15.1837 14.5 15.1201 14.5263 15.0732 14.5732C15.0263 14.6201 15 14.6837 15 14.75V18.125ZM26.7062 9.02188C26.8937 9.20938 27 9.4625 27 9.72812V29C27 29.5531 26.5531 30 26 30H6C5.44687 30 5 29.5531 5 29V3C5 2.44687 5.44687 2 6 2H19.2719C19.5375 2 19.7938 2.10625 19.9813 2.29375L26.7062 9.02188ZM24.6938 10.1875L18.8125 4.30625V10.1875H24.6938Z" fill="black"/>
</svg>
