<svg width="32" height="32" viewBox="0 0 32 32" fill="none" xmlns="http://www.w3.org/2000/svg">
<path d="M20.2864 12.5723H17.4293C17.2715 12.5723 17.1436 12.7002 17.1436 12.858V15.7152C17.1436 15.873 17.2715 16.0009 17.4293 16.0009H20.2864C20.4442 16.0009 20.5721 15.873 20.5721 15.7152V12.858C20.5721 12.7002 20.4442 12.5723 20.2864 12.5723Z" fill="black"/>
<path d="M25.9993 12.5723H23.1422C22.9844 12.5723 22.8564 12.7002 22.8564 12.858V15.7152C22.8564 15.873 22.9844 16.0009 23.1422 16.0009H25.9993C26.1571 16.0009 26.285 15.873 26.285 15.7152V12.858C26.285 12.7002 26.1571 12.5723 25.9993 12.5723Z" fill="black"/>
<path d="M20.2864 18.2871H17.4293C17.2715 18.2871 17.1436 18.415 17.1436 18.5728V21.43C17.1436 21.5878 17.2715 21.7157 17.4293 21.7157H20.2864C20.4442 21.7157 20.5721 21.5878 20.5721 21.43V18.5728C20.5721 18.415 20.4442 18.2871 20.2864 18.2871Z" fill="black"/>
<path d="M25.9993 18.2871H23.1422C22.9844 18.2871 22.8564 18.415 22.8564 18.5728V21.43C22.8564 21.5878 22.9844 21.7157 23.1422 21.7157H25.9993C26.1571 21.7157 26.285 21.5878 26.285 21.43V18.5728C26.285 18.415 26.1571 18.2871 25.9993 18.2871Z" fill="black"/>
<path d="M8.8577 18.2871H6.00056C5.84276 18.2871 5.71484 18.415 5.71484 18.5728V21.43C5.71484 21.5878 5.84276 21.7157 6.00056 21.7157H8.8577C9.0155 21.7157 9.14342 21.5878 9.14342 21.43V18.5728C9.14342 18.415 9.0155 18.2871 8.8577 18.2871Z" fill="black"/>
<path d="M14.5716 18.2871H11.7144C11.5566 18.2871 11.4287 18.415 11.4287 18.5728V21.43C11.4287 21.5878 11.5566 21.7157 11.7144 21.7157H14.5716C14.7294 21.7157 14.8573 21.5878 14.8573 21.43V18.5728C14.8573 18.415 14.7294 18.2871 14.5716 18.2871Z" fill="black"/>
<path d="M8.8577 24H6.00056C5.84276 24 5.71484 24.1279 5.71484 24.2857V27.1429C5.71484 27.3007 5.84276 27.4286 6.00056 27.4286H8.8577C9.0155 27.4286 9.14342 27.3007 9.14342 27.1429V24.2857C9.14342 24.1279 9.0155 24 8.8577 24Z" fill="black"/>
<path d="M14.5716 24H11.7144C11.5566 24 11.4287 24.1279 11.4287 24.2857V27.1429C11.4287 27.3007 11.5566 27.4286 11.7144 27.4286H14.5716C14.7294 27.4286 14.8573 27.3007 14.8573 27.1429V24.2857C14.8573 24.1279 14.7294 24 14.5716 24Z" fill="black"/>
<path d="M20.2864 24H17.4293C17.2715 24 17.1436 24.1279 17.1436 24.2857V27.1429C17.1436 27.3007 17.2715 27.4286 17.4293 27.4286H20.2864C20.4442 27.4286 20.5721 27.3007 20.5721 27.1429V24.2857C20.5721 24.1279 20.4442 24 20.2864 24Z" fill="black"/>
<path d="M29.7143 2.28571H26.2857V0H23.4286V2.28571H8.57143V0H5.71429V2.28571H2.28571C1.67951 2.28571 1.09812 2.52653 0.66947 2.95518C0.240816 3.38384 0 3.96522 0 4.57143V29.7143C0 30.3205 0.240816 30.9019 0.66947 31.3305C1.09812 31.7592 1.67951 32 2.28571 32H29.7143C30.3205 32 30.9019 31.7592 31.3305 31.3305C31.7592 30.9019 32 30.3205 32 29.7143V4.57143C32 3.96522 31.7592 3.38384 31.3305 2.95518C30.9019 2.52653 30.3205 2.28571 29.7143 2.28571ZM28.8571 28.8571H3.14286V10.2857H28.8571V28.8571Z" fill="black"/>
</svg>
