<svg width="32" height="32" viewBox="0 0 32 32" fill="none" xmlns="http://www.w3.org/2000/svg">
<path d="M27.973 3.41352C27.1187 2.56909 25.9956 2.05067 24.7987 1.94836C23.6019 1.84606 22.4071 2.16633 21.4219 2.85352C24.5888 4.17206 27.1759 6.58561 28.7108 9.65352C29.3032 8.68069 29.5525 7.53735 29.4188 6.40619C29.285 5.27503 28.776 4.22135 27.973 3.41352Z" fill="black"/>
<path d="M10.1513 3.04814C9.17017 2.26892 7.93775 1.87578 6.68664 1.94292C5.43553 2.01006 4.25227 2.53284 3.36018 3.41258C2.47545 4.30317 1.95146 5.48957 1.88909 6.74337C1.82673 7.99717 2.23041 9.22971 3.0224 10.2037C4.44865 7.03039 6.98333 4.48623 10.1513 3.04814Z" fill="black"/>
<path d="M15.9998 3.55469C13.5428 3.55976 11.1423 4.29205 9.1008 5.65925C7.05931 7.02645 5.46824 8.96738 4.5281 11.2374C3.58795 13.5074 3.34083 16.005 3.81786 18.4152C4.29489 20.8255 5.47473 23.0406 7.20869 24.7814L4.94202 27.048C4.85972 27.1321 4.79479 27.2315 4.75092 27.3406C4.70705 27.4498 4.68511 27.5665 4.68635 27.6841C4.68759 27.8017 4.71198 27.918 4.75814 28.0262C4.80429 28.1343 4.87131 28.2324 4.95535 28.3147C5.0394 28.397 5.13883 28.4619 5.24797 28.5058C5.35711 28.5497 5.47383 28.5716 5.59145 28.5704C5.70907 28.5691 5.82529 28.5447 5.93349 28.4986C6.04168 28.4524 6.13972 28.3854 6.22202 28.3014L8.58646 25.9369C10.7487 27.5731 13.3892 28.4526 16.1007 28.4398C18.8123 28.4269 21.4443 27.5225 23.5909 25.8658L26.0265 28.3014C26.1965 28.447 26.4152 28.5231 26.639 28.5144C26.8627 28.5058 27.0749 28.413 27.2332 28.2547C27.3915 28.0964 27.4842 27.8842 27.4929 27.6605C27.5015 27.4368 27.4254 27.2181 27.2798 27.048L24.8887 24.6925C26.5983 22.9414 27.7536 20.7251 28.2101 18.3208C28.6667 15.9166 28.4043 13.431 27.4556 11.1751C26.507 8.91926 24.9142 6.99315 22.8766 5.63773C20.839 4.28231 18.447 3.55776 15.9998 3.55469ZM22.6398 19.048C22.538 19.2598 22.3564 19.4226 22.1349 19.5009C21.9134 19.5792 21.6698 19.5665 21.4576 19.4658L15.1109 16.3902V8.61246C15.1109 8.37672 15.2046 8.15062 15.3713 7.98393C15.538 7.81723 15.764 7.72358 15.9998 7.72358C16.2355 7.72358 16.4616 7.81723 16.6283 7.98393C16.795 8.15062 16.8887 8.37672 16.8887 8.61246V15.2791L22.222 17.8658C22.3284 17.9146 22.4241 17.984 22.5037 18.0699C22.5832 18.1558 22.645 18.2566 22.6854 18.3664C22.7259 18.4763 22.7443 18.593 22.7395 18.71C22.7347 18.827 22.7069 18.9418 22.6576 19.048H22.6398Z" fill="black"/>
</svg>
