<svg width="32" height="32" viewBox="0 0 32 32" fill="none" xmlns="http://www.w3.org/2000/svg">
<path d="M30.8541 12.3077H28.8392V9.84615L27.7318 6.15385H25.763V3.69231L24.6095 0H7.38284L6.22927 3.69231V6.15385H4.26051L3.15309 9.84615V12.3077H1.13819L0 16V28.7154C0 30.5231 2.70704 32 4.5143 32H28.7162C30.3927 32 32 30.4846 32 28.8462V16L30.8541 12.3077ZM9.84379 3.69231H22.1485V6.15385H9.84379V3.69231ZM6.6907 9.84615H25.3016V12.3077H6.6907V9.84615ZM28.3778 18.4615H22.0255C21.4564 21.2692 18.9724 23.3846 15.9962 23.3846C13.0199 23.3846 10.5359 21.2692 9.96684 18.4615H3.61452V16H28.3778V18.4615Z" fill="black"/>
</svg>
