<svg width="32" height="32" viewBox="0 0 32 32" fill="none" xmlns="http://www.w3.org/2000/svg">
<path d="M11.9997 22.666H15.9997M5.33301 5.33268V26.666C5.33301 27.3733 5.61396 28.0515 6.11406 28.5516C6.61415 29.0517 7.29243 29.3327 7.99967 29.3327H23.9997C24.7069 29.3327 25.3852 29.0517 25.8853 28.5516C26.3854 28.0515 26.6663 27.3733 26.6663 26.666V11.122C26.6663 10.7668 26.5953 10.4151 26.4574 10.0877C26.3196 9.76025 26.1177 9.46367 25.8637 9.21535L19.9437 3.42602C19.4455 2.93889 18.7764 2.6661 18.0797 2.66602H7.99967C7.29243 2.66602 6.61415 2.94697 6.11406 3.44706C5.61396 3.94716 5.33301 4.62544 5.33301 5.33268V5.33268ZM11.9997 17.3327H19.9997H11.9997Z" stroke="black" stroke-width="2.66667" stroke-linecap="round" stroke-linejoin="round"/>
<path d="M18.666 2.66602V7.99935C18.666 8.70659 18.947 9.38487 19.4471 9.88497C19.9472 10.3851 20.6254 10.666 21.3327 10.666H26.666" stroke="black" stroke-width="2.66667" stroke-linejoin="round"/>
</svg>
